<!-- <?xml version="1.0" encoding="UTF-8"?> -->
<svg id="Layer_2" data-name="Layer 2" xmlns="http://www.w3.org/2000/svg" viewBox="0 0 185.38 94.44">
  <defs>
    <style>
      .cls-1 {
        fill: none;
      }

      .cls-1, .cls-2, .cls-3, .cls-4, .cls-5, .cls-6, .cls-7, .cls-8 {
        stroke: #000;
        stroke-miterlimit: 10;
        stroke-width: .25px;
      }

      .cls-2 {
        fill: #98d2b1;
      }

      .cls-3 {
        fill: #ea4297;
      }

      .cls-4 {
        fill: #a8d05c;
      }

      .cls-5 {
        fill: #40c7f4;
      }

      .cls-6 {
        fill: #39499e;
      }

      .cls-7 {
        fill: #dbd2e9;
      }

      .cls-8 {
        fill: #329eba;
      }
    </style>
  </defs>
  <g id="Layer_1-2" data-name="Layer 1">
    <g>
      <g>
        <path class="cls-2" d="M82.17,21.4c-4.33-7.16-21.75-3.82-27.74-3.82L13.13,93.96l13.47,.02,16.25-30.08c18.59,.55,27.81-10.83,35.97-26.13,2.31-4.22,6.21-11.63,3.34-16.37Zm-19.39,21.1c-2.84,5.55-6.67,10.27-13.49,9.49l12.35-22.87c11.11-2.97,2.93,10.08,1.14,13.38Z"/>
        <polygon class="cls-4" points="54.43 17.59 13.13 93.96 .25 77.27 41.61 .87 54.43 17.59 54.43 17.59"/>
        <polygon class="cls-7" points="26.6 93.99 42.86 63.9 30 47.19 13.73 77.28 26.6 93.99 26.6 93.99"/>
        <polygon class="cls-2" points="13.13 93.96 26.6 93.99 13.73 77.28 .25 77.27 13.13 93.96 13.13 93.96"/>
        <polygon class="cls-7" points="49.29 51.99 61.65 29.13 48.82 12.41 36.45 35.28 49.29 51.99 49.29 51.99"/>
        <path class="cls-8" d="M65.87,36.78l-.24,.46-12.83-16.73c2.81-4.17,2.99-9.96-3.98-8.11l12.83,16.72c6.41-1.7,7.13,3.45,4.23,7.65h0Z"/>
        <path class="cls-3" d="M65.63,37.24c-3.62,6.75-7.1,15.84-16.34,14.76l-12.84-16.72c9.24,1.05,12.72-8,16.35-14.77l12.83,16.73h0Z"/>
        <path class="cls-5" d="M76.31,42.44s8.61-13.36,6.46-19.73c-1.51-4.46-9.7-13.04-13.76-18.4,0,0,3.23,5.57-2.24,15.59l-3.29,5.81,12.83,16.73Z"/>
        <path class="cls-5" d="M75.63,43.67l.68-1.24-12.83-16.73c-7.34,13.63-17.58,21.94-33.47,21.49l12.85,16.71c15.28,.45,25.45-7.16,32.77-20.23h0Z"/>
        <path class="cls-6" d="M69.76,5.54c-1.32-2.89-4.47-4.32-8.25-4.96-6.92-1.17-15.96,.28-19.89,.29L.25,77.27H13.73s16.28-30.08,16.28-30.08c15.9,.45,26.13-7.85,33.47-21.49,1.24-2.25,3.31-5.53,4.87-8.99,1.75-3.89,2.85-8.01,1.41-11.17Zm-16.96,14.97c-3.63,6.75-7.11,15.84-16.35,14.77l12.37-22.87c6.96-1.85,6.79,3.93,3.98,8.11Z"/>
      </g>
      <g>
        <path class="cls-2" d="M107.78,17.51l-41.26,76.54-13.47-.02L94.31,17.53l13.47-.02Z"/>
        <polygon class="cls-1" points="94.31 17.53 53.04 94.03 40.17 77.3 81.5 .79 94.31 17.53 94.31 17.53"/>
        <polygon class="cls-1" points="107.78 17.51 94.31 17.53 81.5 .79 94.97 .76 107.78 17.51 107.78 17.51"/>
        <polygon class="cls-7" points="66.51 94.05 107.78 17.51 94.97 .76 53.65 77.32 66.51 94.05 66.51 94.05"/>
        <polygon class="cls-2" points="53.04 94.03 66.51 94.05 53.65 77.32 40.17 77.3 53.04 94.03 53.04 94.03"/>
        <path class="cls-6" d="M53.65,77.32L94.97,.76l-13.47,.03L40.17,77.3h13.48Z"/>
      </g>
      <g>
        <path class="cls-2" d="M151.32,17.45l-41.24,76.67-15.12-.02c5.61-16.5,11.28-32.97,17.01-49.43h-.36c-8.05,16.73-16.87,33.07-25.67,49.41l-12.32-.02L114.88,17.5l14.94-.02c-4.83,15.89-10.12,31.72-15.67,47.37h.33c7.5-16.1,15.86-31.75,24.27-47.38l12.56-.02Z"/>
        <path class="cls-1" d="M111.97,44.67c-5.73,16.45-11.4,32.93-17.01,49.43l-12.86-16.75c5.62-16.5,11.31-32.97,17.05-49.43l12.83,16.76h0Z"/>
        <polygon class="cls-1" points="111.61 44.67 111.97 44.67 99.15 27.91 98.78 27.91 111.61 44.67 111.61 44.67"/>
        <path class="cls-5" d="M85.94,94.08c8.8-16.34,17.62-32.68,25.67-49.41l-12.83-16.76c-8.07,16.73-16.9,33.08-25.71,49.42l12.86,16.75h0Z"/>
        <polygon class="cls-2" points="73.62 94.06 85.94 94.08 73.07 77.33 60.75 77.32 73.62 94.06 73.62 94.06"/>
        <polygon class="cls-1" points="129.82 17.48 114.88 17.5 102.07 .75 117.02 .72 129.82 17.48 129.82 17.48"/>
        <path class="cls-7" d="M114.16,64.85c5.55-15.65,10.84-31.48,15.67-47.37L117.02,.72c-4.84,15.89-10.14,31.72-15.7,47.37l12.84,16.76h0Z"/>
        <polygon class="cls-1" points="114.48 64.85 114.16 64.85 101.32 48.09 101.64 48.09 114.48 64.85 114.48 64.85"/>
        <path class="cls-1" d="M138.75,17.47c-8.41,15.63-16.78,31.28-24.27,47.38l-12.84-16.76c7.51-16.1,15.88-31.76,24.31-47.39l12.8,16.77h0Z"/>
        <polygon class="cls-1" points="151.32 17.45 138.75 17.47 125.95 .7 138.52 .67 151.32 17.45 151.32 17.45"/>
        <polygon class="cls-2" points="94.96 94.1 110.08 94.12 97.22 77.36 82.1 77.34 94.96 94.1 94.96 94.1"/>
        <polygon class="cls-7" points="110.08 94.12 151.32 17.45 138.52 .67 97.22 77.36 110.08 94.12 110.08 94.12"/>
        <path class="cls-6" d="M97.22,77.36L138.52,.67l-12.57,.03c-8.43,15.64-16.8,31.29-24.31,47.39h-.33c5.56-15.65,10.86-31.49,15.7-47.37l-14.95,.03L60.75,77.32h12.32c8.81-16.33,17.64-32.68,25.71-49.41h.36c-5.74,16.46-11.43,32.93-17.05,49.43,5.04,0,10.08,0,15.12,.01Z"/>
      </g>
      <g>
        <path class="cls-2" d="M164.98,17.43l-51.2,76.69,13.82,.02,11.57-18.29h8.79s-7.88,18.31-7.88,18.31l14.13,.02,30.99-76.79c-6.74,0-13.48,.02-20.22,.03Zm-17.63,45.4c6.77-10.64,13.67-21.23,20.09-32.08h.53c-4.77,10.67-9.5,21.37-14.17,32.09h-6.45Z"/>
        <polygon class="cls-1" points="147.96 75.87 140.07 94.17 127.22 77.39 135.12 59.08 147.96 75.87 147.96 75.87"/>
        <polygon class="cls-5" points="164.98 17.43 113.78 94.12 100.92 77.36 152.18 .65 164.98 17.43 164.98 17.43"/>
        <polygon class="cls-3" points="139.17 75.86 147.96 75.87 135.12 59.08 126.33 59.08 139.17 75.86 139.17 75.86"/>
        <polygon class="cls-7" points="127.6 94.15 139.17 75.86 126.33 59.08 114.75 77.37 127.6 94.15 127.6 94.15"/>
        <polygon class="cls-2" points="113.78 94.12 127.6 94.15 114.75 77.37 100.92 77.36 113.78 94.12 113.78 94.12"/>
        <polygon class="cls-2" points="140.07 94.17 154.21 94.19 141.36 77.4 127.22 77.39 140.07 94.17 140.07 94.17"/>
        <polygon class="cls-7" points="154.21 94.19 185.2 17.41 172.41 .61 141.36 77.4 154.21 94.19 154.21 94.19"/>
        <path class="cls-6" d="M152.18,.65l-51.26,76.71h13.83s11.58-18.28,11.58-18.28h8.79s-7.9,18.31-7.9,18.31c4.71,0,9.42,0,14.14,.01L172.41,.61l-20.23,.04Zm-17.66,45.41c6.78-10.65,13.68-21.24,20.11-32.09h.53c-4.78,10.67-9.52,21.37-14.19,32.09h-6.46Z"/>
      </g>
    </g>
  </g>
</svg>